{
  "accessors": [
    {
      "bufferView": 1,
      "componentType": 5126,
      "count": 318,
      "max": [
        25.017999649047852,
        -0,
        25
      ],
      "min": [
        -25,
        -50,
        -25.003999710083008
      ],
      "type": "VEC3"
    },
    {
      "bufferView": 1,
      "byteOffset": 3816,
      "componentType": 5126,
      "count": 318,
      "max": [
        0.99998688697814941,
        1,
        0.99999815225601196
      ],
      "min": [
        -0.99999451637268066,
        -1,
        -0.9999956488609314
      ],
      "type": "VEC3"
    },
    {
      "bufferView": 0,
      "componentType": 5125,
      "count": 936,
      "max": [
        317
      ],
      "min": [
        0
      ],
      "type": "SCALAR"
    }
  ],
  "asset": {
    "extras": {
      "author": "holos-tyler (https://sketchfab.com/holos-tyler)",
      "license": "CC-BY-4.0 (http://creativecommons.org/licenses/by/4.0/)",
      "source": "https://sketchfab.com/3d-models/5-680c72cc4bb94f95b51371768c8ed3ba",
      "title": "5"
    },
    "generator": "Sketchfab-5.81.0",
    "version": "2.0"
  },
  "bufferViews": [
    {
      "buffer": 0,
      "byteLength": 3744,
      "byteOffset": 0,
      "name": "floatBufferViews",
      "target": 34963
    },
    {
      "buffer": 0,
      "byteLength": 7632,
      "byteOffset": 3744,
      "byteStride": 12,
      "name": "floatBufferViews",
      "target": 34962
    }
  ],
  "buffers": [
    {
      "byteLength": 11376,
      "uri": "5.bin"
    }
  ],
  "materials": [
    {
      "doubleSided": true,
      "emissiveFactor": [
        0,
        0,
        0
      ],
      "name": "color_12955475",
      "pbrMetallicRoughness": {
        "baseColorFactor": [
          0.55834038963426791,
          0.42869049661390662,
          0.086500462036549763,
          1
        ],
        "metallicFactor": 0,
        "roughnessFactor": 0.80000000000000004
      }
    }
  ],
  "meshes": [
    {
      "primitives": [
        {
          "attributes": {
            "NORMAL": 1,
            "POSITION": 0
          },
          "indices": 2,
          "material": 0,
          "mode": 4
        }
      ]
    }
  ],
  "nodes": [
    {
      "children": [
        1
      ],
      "name": "RootNode (gltf orientation matrix)",
      "rotation": [
        -0.70710678118654746,
        -0,
        -0,
        0.70710678118654757
      ]
    },
    {
      "children": [
        2
      ],
      "name": "RootNode (model correction matrix)"
    },
    {
      "children": [
        3
      ],
      "name": "5.obj.cleaner.materialmerger.gles"
    },
    {
      "mesh": 0,
      "name": ""
    }
  ],
  "scene": 0,
  "scenes": [
    {
      "name": "OSG_Scene",
      "nodes": [
        0
      ]
    }
  ]
}

